<svg width="693" height="347" xmlns="http://www.w3.org/2000/svg" xmlns:xlink="http://www.w3.org/1999/xlink" overflow="hidden"><defs><clipPath id="clip0"><rect x="587" y="373" width="693" height="347"/></clipPath></defs><g clip-path="url(#clip0)" transform="translate(-587 -373)"><path d="M305.994 610.169C238.133 604.205 181.982 567.329 153.106 509.796 143.432 490.594 136.741 467.901 134.268 446.226L133.468 438.952 128.376 437.279C102.774 428.77 85.172 420.551 68.0067 409.058 36.5127 388.038 15.5652 362.508 5.81876 333.196-11.783 280.246 11.7102 225.331 68.0067 187.946 83.2809 177.763 102.556 168.235 118.775 162.925 121.83 161.907 124.085 160.743 124.667 159.798 125.176 158.925 127.14 155.433 129.104 152.015 148.815 117.102 190.637 88.9542 240.896 76.8076 279.373 67.4976 316.904 66.9157 356.981 75.0619L368.182 77.3167 372.982 72.589C396.403 49.9686 428.697 31.0576 465.646 18.3291 557.291-13.3104 668.43-3.12758 747.71 44.1498 766.33 55.2782 780.731 66.4065 794.987 80.6625 805.17 90.8453 810.771 97.6824 818.699 109.611 829.9 126.34 838.119 146.051 841.61 164.525L843.138 172.817 848.375 175.654C882.051 193.91 909.762 222.495 921.909 251.588 949.112 316.468 913.399 385.202 833.1 422.369 817.462 429.642 794.769 436.916 776.731 440.407 771.421 441.425 766.912 442.516 766.766 442.807 766.694 443.098 764.875 446.517 762.766 450.372 749.092 475.029 728.217 494.012 698.614 508.486 650.1 532.198 589.149 536.271 527.179 519.979L518.669 517.724 507.541 529.143C483.393 554.091 460.409 570.893 430.661 585.44 390.875 604.86 346.143 613.733 305.994 610.169Z" fill="#FFFFFF" transform="matrix(1.01855 0 0 -1 587.093 983.982)"/></g></svg>