<svg width="282" height="208" xmlns="http://www.w3.org/2000/svg" xmlns:xlink="http://www.w3.org/1999/xlink" overflow="hidden"><defs><clipPath id="clip0"><rect x="998" y="286" width="282" height="208"/></clipPath></defs><g clip-path="url(#clip0)" transform="translate(-998 -286)"><path d="M190.544 201.839C163.965 198.906 140.202 184.618 125.709 162.88 122.922 158.655 120.047 153.198 118.375 148.886 117.73 147.272 117.202 145.893 117.143 145.835 117.084 145.747 116.234 145.981 115.207 146.333 107.432 149.032 97.7805 148.27 90.0062 144.309 85.9577 142.256 81.4691 138.471 78.7701 134.804 75.9537 131.019 73.7828 125.856 72.9907 121.133L72.668 119.05 71.7585 119.255C67.886 120.047 57.8234 120.194 52.0733 119.549 31.156 117.202 14.2872 107.286 5.04598 91.9131-1.32017 81.2931-1.55487 67.622 4.40056 55.7405 8.65444 47.2034 17.6903 38.8717 28.3103 33.7377 47.5554 24.3791 71.9346 24.1151 92.2945 33.0336 92.4999 33.1216 93.3213 31.8894 94.2601 30.0705 100.597 17.925 112.038 9.53456 126.531 6.39549 130.843 5.4567 139.645 5.4567 143.81 6.36615 152.348 8.27306 159.887 12.1749 166.165 17.925L167.72 19.3331 169.216 18.6291C171.065 17.7783 176.345 16.0474 179.074 15.4313 189.87 12.9083 201.634 13.4951 212.166 17.0155 217.094 18.6584 220.615 20.3599 225.514 23.4697 226.101 23.8511 226.306 23.7337 228.741 21.6801 232.086 18.8344 233.993 17.4262 237.044 15.5193 253.854 5.13399 275.123 2.14161 295.278 7.33427 304.226 9.6519 313.056 14.0231 320.654 19.8906 324.058 22.5309 330.042 28.6037 331.656 31.068 332.389 32.1828 333.181 33.2683 333.445 33.4736 333.768 33.7377 334.942 33.8257 337.611 33.767 339.958 33.7377 342.276 33.8843 343.889 34.1777 358.353 36.73 370.44 47.6434 374.312 61.5786 375.75 66.7712 375.779 74.0762 374.371 79.5622 370.997 92.6759 360.201 103.061 346.207 106.699 342.745 107.579 336.027 107.931 332.829 107.403 328.047 106.582 328.928 106.318 325.554 109.75 317.339 118.111 306.221 124.037 291.933 127.646 289.44 128.262 287.357 128.819 287.328 128.878 287.269 128.937 286.946 130.55 286.623 132.486 285.274 140.29 283.015 147.096 279.318 154.46 268.112 176.668 247.605 193.038 222.962 199.463 215.95 201.282 210.846 201.869 201.252 201.986 196.647 202.045 191.835 201.986 190.544 201.839Z" fill="#FFFFFF" transform="matrix(1.27861 0 0 -1 998.132 494)"/></g></svg>