<svg width="675" height="434" xmlns="http://www.w3.org/2000/svg" xmlns:xlink="http://www.w3.org/1999/xlink" overflow="hidden"><defs><clipPath id="clip0"><rect x="0" y="286" width="675" height="434"/></clipPath><clipPath id="clip1"><rect x="0" y="286" width="667" height="434"/></clipPath><clipPath id="clip2"><rect x="-308" y="286" width="975" height="618"/></clipPath></defs><g clip-path="url(#clip0)" transform="matrix(1 0 0 1 0 -286)"><g clip-path="url(#clip1)"><g clip-path="url(#clip2)"><path d="M348.702 617.104C311.477 613.533 281.317 603.201 252.752 584.209 239.761 575.548 231.784 569.015 221.452 558.759 192.052 529.434 172.3 491.601 165.311 451.185 160.98 426.267 161.968 392.233 167.59 370.429 168.197 367.998 168.577 365.871 168.425 365.719 168.273 365.567 164.095 364.883 159.157 364.276 103.699 356.983 54.9262 324.847 25.8298 276.53 1.06358 235.431-6.22953 184.987 5.69774 137.809 19.9801 81.7436 61.0038 34.8702 114.715 13.2947 188.253-16.2576 272.276 4.7861 323.252 65.4861 328.798 72.0195 328.798 72.0195 330.241 70.5001 331.001 69.6644 334.875 66.2458 338.826 62.9031 379.242 28.9445 428.09 12.4591 479.674 15.27 530.27 18.0049 575.396 38.2129 611.178 74.0707L620.294 83.187 629.411 74.0707C674.917 28.4887 737.668 7.74893 801.786 17.1692 880.795 28.7166 947.269 89.1887 966.337 166.754 985.785 245.839 956.917 327.126 891.887 376.355 868.868 393.676 839.695 406.667 810.675 412.517 794.189 415.859 770.411 417.151 755.369 415.631 752.33 415.327 749.823 415.327 749.823 415.555 749.823 415.783 749.291 420.19 748.683 425.431 744.353 462.125 723.841 494.64 692.086 515.228 672.562 527.915 651.442 534.98 626.828 537.183 599.934 539.538 567.115 531.789 545.388 517.963 543.109 516.519 540.906 515.152 540.45 514.848 539.918 514.544 537.943 516.975 535.36 521.381 516.519 552.909 486.891 579.878 452.401 596.82 429.154 608.215 406.895 614.445 380.989 616.876 373.24 617.559 354.931 617.711 348.702 617.104Z" fill="#FFFFFF" transform="matrix(1.00116 0 0 -1 -306.971 903.635)"/></g></g></g></svg>